<svg viewBox="248.6297 356 1028.7405 187" width="5000" height="908.8783808939182" xmlns="http://www.w3.org/2000/svg" xmlns:xlink="http://www.w3.org/1999/xlink" preserveAspectRatio="none"><defs></defs><style>.companyName {fill:#4D4D4D;fill-opacity:1;}.icon1 {fill:#FF834F;fill-opacity:1;}.icon2 {fill:#FF4949;fill-opacity:1;}.icon3 {fill:#FFAE78;fill-opacity:1;}.icon3-str {stroke:#FFAE78;stroke-opacity:1;}.shapeStroke-str {stroke:#313131;stroke-opacity:1;}</style><g opacity="1" transform="rotate(0 248.6297 375.1321)">
<svg width="145.6098" height="148.7358" x="248.6297" y="375.1321" version="1.1" preserveAspectRatio="none" viewBox="1.7330000400543213 1.018694281578064 66.53399658203125 67.9622802734375">
  <g transform="matrix(1 0 0 1 0 0)" class="icon1"><g><path d="M52.978,39.651c-0.803,9.215-8.539,16.438-17.962,16.438c-9.417,0-17.153-7.224-17.956-16.438H4.189   c0.151,1.639,0.683,2.89,3.2,3.408c4.199,0.857,7.147,7.772,5.048,11.178c-1.291,2.099-1.538,3.686,0.394,5.54   c1.896,1.819,3.539,3.454,6.221,1.243c0.758-0.624,1.923-0.75,2.556-0.983c3.286,0.022,8.166,3.006,8.728,5.287   c0.555,2.289,1.432,3.763,4.185,3.651c2.563-0.112,4.598,0.014,5.385-3.391c0.99-4.242,7.682-6.994,11.221-4.866   c2.366,1.424,3.995,1.094,5.813-0.836c1.686-1.797,2.521-3.181,0.92-5.716c-2.409-3.819,0.028-9.97,4.374-11.051   c2.35-0.59,3.277-1.649,3.579-3.464H52.978z"></path><g><g><path d="M68.267,36.192v1.317H1.733v-1.317c0-0.102,0.006-0.204,0.016-0.303c0.153-1.7,1.581-3.031,3.321-3.031     h0.149c0.268-0.642,0.425-1.366,0.517-2.199c0.64-5.835,2.788-10.931,6.315-15.271c0,0,0.006-0.008,0.02-0.023     c0.243-0.276,2.687-3.011,6.225-5.616c0.002-0.002,0.006-0.004,0.01-0.006c0.141-0.104,0.286-0.205,0.429-0.309l0.004,0.006     c0.567,1.505,2.871,9.406,4.399,14.803l0.061,0.184c0.685,1.761,2.902,4.804,6.886,5.035l9.78,0.002l0.059-0.002     c3.984-0.231,6.201-3.274,6.886-5.035l0.061-0.184c1.528-5.397,3.831-13.298,4.399-14.803l0.014-0.018     c0.487,0.346,0.957,0.699,1.403,1.049c1.957,1.532,3.501,3.029,4.403,3.961c0.575,0.593,0.892,0.957,0.892,0.957l-0.041,0.047     c3.413,4.211,5.53,9.152,6.234,14.813c0.127,1.016,0.35,1.873,0.751,2.61h0.01c1.205,0,2.26,0.638,2.845,1.595     C68.087,34.959,68.267,35.556,68.267,36.192z"></path><path d="M24.868,10.659c1,3.415,1.982,8.044,2.184,8.749c0.182,0.395,1.135,2.213,3.213,2.362h9.471     c2.078-0.149,3.031-1.967,3.213-2.362c0.202-0.704,1.184-5.334,2.184-8.749c0.472-1.617,0.882-2.996,1.225-4.123     c-0.357-0.162-0.719-0.315-1.084-0.458c-0.401-0.254-0.91-0.444-1.54-0.571c-0.027-0.006-0.057-0.012-0.084-0.018     c-0.26-0.078-0.544-0.145-0.847-0.198c-0.115-0.022-0.231-0.043-0.346-0.063c-1.34-0.354-2.499-1-2.524-3.006     c-0.006-0.382-1.108-1.029-1.736-1.072c-0.182-0.014-0.364-0.025-0.548-0.035c-0.055-0.012-0.11-0.018-0.162-0.022     c-2.057-0.135-4.141-0.076-6.197,0.096c-0.628,0.053-1.722,0.718-1.722,1.1c0.004,2.137-1.301,2.749-2.747,3.111     c-0.004,0.002-0.01,0.002-0.014,0.002c-0.022,0.006-0.043,0.008-0.065,0.014c-0.207,0.039-0.405,0.084-0.593,0.137     c-0.002,0-0.004,0.002-0.006,0.002c-0.11,0.023-0.219,0.045-0.329,0.07c-0.724,0.157-1.284,0.393-1.704,0.714h-0.002     c-0.155,0.066-0.308,0.138-0.461,0.208C23.988,7.673,24.397,9.049,24.868,10.659z"></path></g></g></g></g>
</svg>
</g><g opacity="1" transform="rotate(0 518.9602 407.0041)">
<svg width="758.41" height="84.9918" x="518.9602" y="407.0041" version="1.1" preserveAspectRatio="none" viewBox="0.16 -29.68 269.12 30.16">
  <g transform="matrix(1 0 0 1 0 0)" class="companyName"><path id="id-D6z1nYkh12" d="M9.12 0L9.12-22.72L0.16-22.72L0.16-28L24.56-28L24.56-22.72L15.60-22.72L15.60 0L9.12 0Z M40.68-21.84Q44.68-21.84 47.14-19.44Q49.60-17.04 49.60-12.32L49.60-12.32L49.60 0L43.36 0L43.36-11.36Q43.36-13.92 42.24-15.18Q41.12-16.44 39-16.44L39-16.44Q36.64-16.44 35.24-14.98Q33.84-13.52 33.84-10.64L33.84-10.64L33.84 0L27.60 0L27.60-29.68L33.84-29.68L33.84-19.28Q35.08-20.52 36.84-21.18Q38.60-21.84 40.68-21.84L40.68-21.84Z M76.56-10.68Q76.56-10.56 76.44-9L76.44-9L60.16-9Q60.60-7 62.24-5.84Q63.88-4.68 66.32-4.68L66.32-4.68Q68-4.68 69.30-5.18Q70.60-5.68 71.72-6.76L71.72-6.76L75.04-3.16Q72 0.32 66.16 0.32L66.16 0.32Q62.52 0.32 59.72-1.10Q56.92-2.52 55.40-5.04Q53.88-7.56 53.88-10.76L53.88-10.76Q53.88-13.92 55.38-16.46Q56.88-19 59.50-20.42Q62.12-21.84 65.36-21.84L65.36-21.84Q68.52-21.84 71.08-20.48Q73.64-19.12 75.10-16.58Q76.56-14.04 76.56-10.68L76.56-10.68ZM65.40-17.12Q63.28-17.12 61.84-15.92Q60.40-14.72 60.08-12.64L60.08-12.64L70.68-12.64Q70.36-14.68 68.92-15.90Q67.48-17.12 65.40-17.12L65.40-17.12Z M105.88 0.48Q101.60 0.48 98.14-1.38Q94.68-3.24 92.70-6.54Q90.72-9.84 90.72-14L90.72-14Q90.72-18.16 92.70-21.46Q94.68-24.76 98.14-26.62Q101.60-28.48 105.92-28.48L105.92-28.48Q109.56-28.48 112.50-27.20Q115.44-25.92 117.44-23.52L117.44-23.52L113.28-19.68Q110.44-22.96 106.24-22.96L106.24-22.96Q103.64-22.96 101.60-21.82Q99.56-20.68 98.42-18.64Q97.28-16.60 97.28-14L97.28-14Q97.28-11.40 98.42-9.36Q99.56-7.32 101.60-6.18Q103.64-5.04 106.24-5.04L106.24-5.04Q110.44-5.04 113.28-8.36L113.28-8.36L117.44-4.52Q115.44-2.08 112.48-0.80Q109.52 0.48 105.88 0.48L105.88 0.48Z M130.84 0.32Q127.44 0.32 124.74-1.10Q122.04-2.52 120.52-5.04Q119.00-7.56 119.00-10.76L119.00-10.76Q119.00-13.96 120.52-16.48Q122.04-19 124.74-20.42Q127.44-21.84 130.84-21.84L130.84-21.84Q134.24-21.84 136.92-20.42Q139.60-19 141.12-16.48Q142.64-13.96 142.64-10.76L142.64-10.76Q142.64-7.56 141.12-5.04Q139.60-2.52 136.92-1.10Q134.24 0.32 130.84 0.32L130.84 0.32ZM130.84-4.80Q133.24-4.80 134.78-6.42Q136.32-8.04 136.32-10.76L136.32-10.76Q136.32-13.48 134.78-15.10Q133.24-16.72 130.84-16.72L130.84-16.72Q128.44-16.72 126.88-15.10Q125.32-13.48 125.32-10.76L125.32-10.76Q125.32-8.04 126.88-6.42Q128.44-4.80 130.84-4.80L130.84-4.80Z M154.04 0.32Q151.36 0.32 148.80-0.34Q146.24-1 144.72-2L144.72-2L146.80-6.48Q148.24-5.56 150.28-4.98Q152.32-4.40 154.28-4.40L154.28-4.40Q158.24-4.40 158.24-6.36L158.24-6.36Q158.24-7.28 157.16-7.68Q156.08-8.08 153.84-8.36L153.84-8.36Q151.20-8.76 149.48-9.28Q147.76-9.80 146.50-11.12Q145.24-12.44 145.24-14.88L145.24-14.88Q145.24-16.92 146.42-18.50Q147.60-20.08 149.86-20.96Q152.12-21.84 155.20-21.84L155.20-21.84Q157.48-21.84 159.74-21.34Q162-20.84 163.48-19.96L163.48-19.96L161.40-15.52Q158.56-17.12 155.20-17.12L155.20-17.12Q153.20-17.12 152.20-16.56Q151.20-16 151.20-15.12L151.20-15.12Q151.20-14.12 152.28-13.72Q153.36-13.32 155.72-12.96L155.72-12.96Q158.36-12.52 160.04-12.02Q161.72-11.52 162.96-10.20Q164.20-8.88 164.20-6.52L164.20-6.52Q164.20-4.52 163-2.96Q161.80-1.40 159.50-0.54Q157.20 0.32 154.04 0.32L154.04 0.32Z M180.24-5.44L181.92-1.04Q181-0.36 179.66-0.02Q178.32 0.32 176.84 0.32L176.84 0.32Q173 0.32 170.90-1.64Q168.80-3.60 168.80-7.40L168.80-7.40L168.80-16.24L165.48-16.24L165.48-21.04L168.80-21.04L168.80-26.28L175.04-26.28L175.04-21.04L180.40-21.04L180.40-16.24L175.04-16.24L175.04-7.48Q175.04-6.12 175.74-5.38Q176.44-4.64 177.72-4.64L177.72-4.64Q179.20-4.64 180.24-5.44L180.24-5.44Z M197.20 0L197.20-28L203.68-28L203.68-5.28L217.72-5.28L217.72 0L197.20 0Z M229.84-21.84Q234.84-21.84 237.52-19.46Q240.20-17.08 240.20-12.28L240.20-12.28L240.20 0L234.36 0L234.36-2.68Q232.60 0.32 227.80 0.32L227.80 0.32Q225.32 0.32 223.50-0.52Q221.68-1.36 220.72-2.84Q219.76-4.32 219.76-6.20L219.76-6.20Q219.76-9.20 222.02-10.92Q224.28-12.64 229-12.64L229-12.64L233.96-12.64Q233.96-14.68 232.72-15.78Q231.48-16.88 229-16.88L229-16.88Q227.28-16.88 225.62-16.34Q223.96-15.80 222.80-14.88L222.80-14.88L220.56-19.24Q222.32-20.48 224.78-21.16Q227.24-21.84 229.84-21.84L229.84-21.84ZM229.36-3.88Q230.96-3.88 232.20-4.62Q233.44-5.36 233.96-6.80L233.96-6.80L233.96-9L229.68-9Q225.84-9 225.84-6.48L225.84-6.48Q225.84-5.28 226.78-4.58Q227.72-3.88 229.36-3.88L229.36-3.88Z M258.56-21.84Q261.56-21.84 264.02-20.46Q266.48-19.08 267.88-16.58Q269.28-14.08 269.28-10.76L269.28-10.76Q269.28-7.44 267.88-4.94Q266.48-2.44 264.02-1.06Q261.56 0.32 258.56 0.32L258.56 0.32Q254.12 0.32 251.80-2.48L251.80-2.48L251.80 0L245.84 0L245.84-29.68L252.08-29.68L252.08-19.24Q254.44-21.84 258.56-21.84L258.56-21.84ZM257.48-4.80Q259.88-4.80 261.42-6.42Q262.96-8.04 262.96-10.76L262.96-10.76Q262.96-13.48 261.42-15.10Q259.88-16.72 257.48-16.72L257.48-16.72Q255.08-16.72 253.54-15.10Q252-13.48 252-10.76L252-10.76Q252-8.04 253.54-6.42Q255.08-4.80 257.48-4.80L257.48-4.80Z"/></g>
</svg>
</g><g opacity="1" transform="rotate(0 450.0717 356)">
<svg width="8.4992" height="187" x="450.0717" y="356" version="1.1" preserveAspectRatio="none" viewBox="0 0 8.4992 187">
  <rect x="0" y="0" width="8.4992" height="187" class="companyName shapeStroke-str" style="stroke-width:0;" rx="0px" ry="0px" />
</svg>
</g></svg>